<mxfile host="app.diagrams.net" modified="2021-05-13T10:45:34.766Z" agent="5.0 (Macintosh; Intel Mac OS X 10_14_5) AppleWebKit/537.36 (KHTML, like Gecko) Chrome/89.0.4389.128 Safari/537.36" etag="Ni1tXPPMX9au1_v19PIw" version="14.6.12" type="github">
  <diagram id="SXcjKoBFVdFMy-o0M5Em" name="Page-1">
    <mxGraphModel dx="5492" dy="4537" grid="1" gridSize="10" guides="1" tooltips="1" connect="1" arrows="1" fold="1" page="1" pageScale="1" pageWidth="827" pageHeight="1169" math="0" shadow="0">
      <root>
        <mxCell id="0" />
        <mxCell id="1" parent="0" />
        <mxCell id="PC2PQDanWNCWB4JbsfnV-12" style="edgeStyle=orthogonalEdgeStyle;rounded=0;orthogonalLoop=1;jettySize=auto;html=1;exitX=0.5;exitY=1;exitDx=0;exitDy=0;" parent="1" source="PC2PQDanWNCWB4JbsfnV-1" edge="1" target="PC2PQDanWNCWB4JbsfnV-14">
          <mxGeometry relative="1" as="geometry">
            <mxPoint x="390" y="-150" as="targetPoint" />
          </mxGeometry>
        </mxCell>
        <mxCell id="PC2PQDanWNCWB4JbsfnV-1" value="&lt;div style=&quot;text-align: center&quot;&gt;&lt;span&gt;&lt;b&gt;缴费信息核对&lt;/b&gt;&lt;/span&gt;&lt;/div&gt;&lt;br&gt;承租人信息：&lt;br&gt;承租人：张三&lt;br&gt;身份证号码：410702********1331&lt;br&gt;&lt;div&gt;联系电话：136818182122&lt;/div&gt;&lt;div&gt;承租家庭成员：张三、李四&lt;/div&gt;&lt;div&gt;减免类别：XXXX&lt;/div&gt;&lt;div&gt;减免人数：2人&lt;/div&gt;&lt;div&gt;&lt;br&gt;&lt;/div&gt;&lt;div&gt;承租房源信息：&lt;/div&gt;&lt;div&gt;XX小区XX楼XX单元XX层XX房号&lt;/div&gt;&lt;div&gt;建筑面积（m&lt;sup&gt;&lt;font style=&quot;font-size: 8px&quot;&gt;2&lt;/font&gt;&lt;/sup&gt;）：80m&lt;sup&gt;2&lt;/sup&gt;&lt;/div&gt;&lt;div&gt;租赁期限：&lt;/div&gt;&lt;div&gt;2019.01.01-2022.01.01&lt;/div&gt;&lt;div&gt;&lt;br&gt;&lt;/div&gt;&lt;div&gt;缴费信息：&lt;/div&gt;&lt;div&gt;应缴保证金：5000元（承租第一年缴纳）&lt;/div&gt;&lt;div&gt;租金缴交年度：2021.01.01-2022.01.01&lt;/div&gt;&lt;div&gt;&lt;span style=&quot;font-size: 10px&quot;&gt;租金单价（元/月*平方）：1.25&lt;/span&gt;&lt;/div&gt;&lt;div&gt;&lt;span style=&quot;font-size: 10px&quot;&gt;应缴月租金：180元&lt;/span&gt;&lt;/div&gt;&lt;div&gt;减免面积：20m&lt;sup&gt;2&lt;/sup&gt;&lt;/div&gt;&lt;div&gt;&lt;sup&gt;减免月租金：25元&lt;/sup&gt;&lt;/div&gt;&lt;div&gt;&lt;span style=&quot;font-size: 10px&quot;&gt;实缴月租金：155元&lt;/span&gt;&lt;/div&gt;&lt;div&gt;&lt;span style=&quot;font-size: 10px&quot;&gt;实缴年租金：1860元&lt;/span&gt;&lt;/div&gt;&lt;div&gt;&lt;span style=&quot;font-size: 10px&quot;&gt;租金滞纳金：0元&lt;/span&gt;&lt;/div&gt;&lt;div&gt;&lt;span style=&quot;font-size: 10px&quot;&gt;物业费标准（元/月*平方）: 1.5&lt;/span&gt;&lt;/div&gt;&lt;div&gt;&lt;span style=&quot;font-size: 10px&quot;&gt;应缴物业费：1440元&lt;/span&gt;&lt;/div&gt;&lt;div&gt;&lt;span style=&quot;font-size: 10px&quot;&gt;物业费滞纳金：0元&lt;/span&gt;&lt;/div&gt;&lt;div&gt;&lt;span style=&quot;font-size: 10px&quot;&gt;&lt;br&gt;&lt;/span&gt;&lt;/div&gt;&lt;div&gt;&lt;span style=&quot;font-size: 10px&quot;&gt;缴费截止日期：2021.06.01&lt;/span&gt;&lt;/div&gt;&lt;div&gt;&lt;br&gt;&lt;/div&gt;" style="rounded=0;whiteSpace=wrap;html=1;align=left;" parent="1" vertex="1">
          <mxGeometry x="90" y="-760" width="250" height="540" as="geometry" />
        </mxCell>
        <mxCell id="PC2PQDanWNCWB4JbsfnV-2" value="&lt;h1&gt;&lt;font style=&quot;font-size: 12px ; font-weight: normal&quot; color=&quot;#ff0000&quot;&gt;身份证号隐藏8位显示，&lt;/font&gt;&lt;/h1&gt;" style="text;html=1;strokeColor=none;fillColor=none;spacing=5;spacingTop=-20;whiteSpace=wrap;overflow=hidden;rounded=0;" parent="1" vertex="1">
          <mxGeometry x="337" y="-680" width="190" height="40" as="geometry" />
        </mxCell>
        <mxCell id="PC2PQDanWNCWB4JbsfnV-8" value="首次缴费" style="text;html=1;strokeColor=none;fillColor=none;align=center;verticalAlign=middle;whiteSpace=wrap;rounded=0;" parent="1" vertex="1">
          <mxGeometry x="192" y="-800" width="140" height="20" as="geometry" />
        </mxCell>
        <mxCell id="PC2PQDanWNCWB4JbsfnV-10" value="次年缴费" style="text;html=1;strokeColor=none;fillColor=none;align=center;verticalAlign=middle;whiteSpace=wrap;rounded=0;" parent="1" vertex="1">
          <mxGeometry x="500" y="-800" width="140" height="20" as="geometry" />
        </mxCell>
        <mxCell id="cfQISFHKaqoTKypXr1KS-15" style="edgeStyle=orthogonalEdgeStyle;rounded=0;orthogonalLoop=1;jettySize=auto;html=1;exitX=0.5;exitY=1;exitDx=0;exitDy=0;entryX=0.5;entryY=0;entryDx=0;entryDy=0;" edge="1" parent="1" source="PC2PQDanWNCWB4JbsfnV-14" target="cfQISFHKaqoTKypXr1KS-11">
          <mxGeometry relative="1" as="geometry" />
        </mxCell>
        <mxCell id="PC2PQDanWNCWB4JbsfnV-14" value="保证金缴纳&lt;br&gt;&lt;br&gt;&lt;br&gt;保证金金额：5000元" style="rounded=0;whiteSpace=wrap;html=1;" parent="1" vertex="1">
          <mxGeometry x="90" y="-120" width="250" height="180" as="geometry" />
        </mxCell>
        <mxCell id="PC2PQDanWNCWB4JbsfnV-15" value="&lt;h1&gt;&lt;font color=&quot;#ff0000&quot;&gt;&lt;span style=&quot;font-size: 12px ; font-weight: 400&quot;&gt;保证金不同&lt;/span&gt;&lt;/font&gt;&lt;/h1&gt;" style="text;html=1;strokeColor=none;fillColor=none;spacing=5;spacingTop=-20;whiteSpace=wrap;overflow=hidden;rounded=0;" parent="1" vertex="1">
          <mxGeometry x="340" y="-493" width="190" height="40" as="geometry" />
        </mxCell>
        <mxCell id="cfQISFHKaqoTKypXr1KS-3" value="确认" style="text;html=1;strokeColor=none;fillColor=none;align=center;verticalAlign=middle;whiteSpace=wrap;rounded=0;" vertex="1" parent="1">
          <mxGeometry x="230" y="-180" width="40" height="20" as="geometry" />
        </mxCell>
        <mxCell id="cfQISFHKaqoTKypXr1KS-4" value="支付" style="rounded=1;whiteSpace=wrap;html=1;" vertex="1" parent="1">
          <mxGeometry x="175" y="30" width="85" height="20" as="geometry" />
        </mxCell>
        <mxCell id="cfQISFHKaqoTKypXr1KS-16" style="edgeStyle=orthogonalEdgeStyle;rounded=0;orthogonalLoop=1;jettySize=auto;html=1;exitX=0.5;exitY=1;exitDx=0;exitDy=0;entryX=0.5;entryY=0;entryDx=0;entryDy=0;" edge="1" parent="1" source="cfQISFHKaqoTKypXr1KS-6" target="cfQISFHKaqoTKypXr1KS-12">
          <mxGeometry relative="1" as="geometry" />
        </mxCell>
        <mxCell id="cfQISFHKaqoTKypXr1KS-6" value="&lt;div style=&quot;text-align: center&quot;&gt;&lt;span&gt;&lt;b&gt;缴费信息核对&lt;/b&gt;&lt;/span&gt;&lt;/div&gt;&lt;br&gt;承租人信息：&lt;br&gt;承租人：张三&lt;br&gt;身份证号码：410702********1331&lt;br&gt;&lt;div&gt;联系电话：136818182122&lt;/div&gt;&lt;div&gt;承租家庭成员：张三、李四&lt;/div&gt;&lt;div&gt;减免类别：XXXX&lt;/div&gt;&lt;div&gt;减免人数：2人&lt;/div&gt;&lt;div&gt;&lt;br&gt;&lt;/div&gt;&lt;div&gt;承租房源信息：&lt;/div&gt;&lt;div&gt;XX小区XX楼XX单元XX层XX房号&lt;/div&gt;&lt;div&gt;建筑面积（m&lt;sup&gt;&lt;font style=&quot;font-size: 8px&quot;&gt;2&lt;/font&gt;&lt;/sup&gt;）：80m&lt;sup&gt;2&lt;/sup&gt;&lt;/div&gt;&lt;div&gt;租赁期限：&lt;/div&gt;&lt;div&gt;2019.01.01-2022.01.01&lt;/div&gt;&lt;div&gt;&lt;br&gt;&lt;/div&gt;&lt;div&gt;缴费信息：&lt;/div&gt;&lt;div&gt;应缴保证金：0元（已缴费）&lt;/div&gt;&lt;div&gt;租金缴交年度：2021.01.01-2022.01.01&lt;/div&gt;&lt;div&gt;&lt;span style=&quot;font-size: 10px&quot;&gt;租金单价（元/月*平方）：1.25&lt;/span&gt;&lt;/div&gt;&lt;div&gt;&lt;span style=&quot;font-size: 10px&quot;&gt;应缴月租金：180元&lt;/span&gt;&lt;/div&gt;&lt;div&gt;减免面积：20m&lt;sup&gt;2&lt;/sup&gt;&lt;/div&gt;&lt;div&gt;&lt;sup&gt;减免月租金：25元&lt;/sup&gt;&lt;/div&gt;&lt;div&gt;&lt;span style=&quot;font-size: 10px&quot;&gt;实缴月租金：155元&lt;/span&gt;&lt;/div&gt;&lt;div&gt;&lt;span style=&quot;font-size: 10px&quot;&gt;实缴年租金：1860元&lt;/span&gt;&lt;/div&gt;&lt;div&gt;&lt;span style=&quot;font-size: 10px&quot;&gt;租金滞纳金：0元&lt;/span&gt;&lt;/div&gt;&lt;div&gt;&lt;span style=&quot;font-size: 10px&quot;&gt;物业费标准（元/月*平方）: 1.5&lt;/span&gt;&lt;/div&gt;&lt;div&gt;&lt;span style=&quot;font-size: 10px&quot;&gt;应缴物业费：1440元&lt;/span&gt;&lt;/div&gt;&lt;div&gt;&lt;span style=&quot;font-size: 10px&quot;&gt;物业费滞纳金：0元&lt;/span&gt;&lt;/div&gt;&lt;div&gt;&lt;span style=&quot;font-size: 10px&quot;&gt;&lt;br&gt;&lt;/span&gt;&lt;/div&gt;&lt;div&gt;&lt;span style=&quot;font-size: 10px&quot;&gt;缴费截止日期：2021.06.01&lt;/span&gt;&lt;/div&gt;&lt;div&gt;&lt;br&gt;&lt;/div&gt;" style="rounded=0;whiteSpace=wrap;html=1;align=left;" vertex="1" parent="1">
          <mxGeometry x="490" y="-760" width="250" height="540" as="geometry" />
        </mxCell>
        <mxCell id="cfQISFHKaqoTKypXr1KS-7" value="确认" style="rounded=1;whiteSpace=wrap;html=1;" vertex="1" parent="1">
          <mxGeometry x="120" y="-255" width="85" height="20" as="geometry" />
        </mxCell>
        <mxCell id="cfQISFHKaqoTKypXr1KS-8" value="取消" style="rounded=1;whiteSpace=wrap;html=1;" vertex="1" parent="1">
          <mxGeometry x="230" y="-255" width="85" height="20" as="geometry" />
        </mxCell>
        <mxCell id="cfQISFHKaqoTKypXr1KS-9" value="确认" style="rounded=1;whiteSpace=wrap;html=1;" vertex="1" parent="1">
          <mxGeometry x="520" y="-255" width="85" height="20" as="geometry" />
        </mxCell>
        <mxCell id="cfQISFHKaqoTKypXr1KS-10" value="取消" style="rounded=1;whiteSpace=wrap;html=1;" vertex="1" parent="1">
          <mxGeometry x="632.5" y="-255" width="85" height="20" as="geometry" />
        </mxCell>
        <mxCell id="cfQISFHKaqoTKypXr1KS-19" style="edgeStyle=orthogonalEdgeStyle;rounded=0;orthogonalLoop=1;jettySize=auto;html=1;exitX=0.5;exitY=1;exitDx=0;exitDy=0;entryX=0.5;entryY=0;entryDx=0;entryDy=0;" edge="1" parent="1" source="cfQISFHKaqoTKypXr1KS-11" target="cfQISFHKaqoTKypXr1KS-18">
          <mxGeometry relative="1" as="geometry" />
        </mxCell>
        <mxCell id="cfQISFHKaqoTKypXr1KS-11" value="租金缴纳&lt;br&gt;&lt;br&gt;&lt;br&gt;实缴年租金：1860元&lt;br&gt;实缴总金额：2060元" style="rounded=0;whiteSpace=wrap;html=1;" vertex="1" parent="1">
          <mxGeometry x="90" y="140" width="250" height="180" as="geometry" />
        </mxCell>
        <mxCell id="cfQISFHKaqoTKypXr1KS-12" value="租金缴纳&lt;br&gt;&lt;br&gt;&lt;br&gt;实缴年租金：1860元&lt;br&gt;租金逾期天数：10天&lt;br&gt;租金滞纳金：200元&lt;br&gt;实缴总金额：2060元&lt;br&gt;&lt;br&gt;" style="rounded=0;whiteSpace=wrap;html=1;" vertex="1" parent="1">
          <mxGeometry x="490" y="140" width="250" height="180" as="geometry" />
        </mxCell>
        <mxCell id="cfQISFHKaqoTKypXr1KS-26" style="edgeStyle=orthogonalEdgeStyle;rounded=0;orthogonalLoop=1;jettySize=auto;html=1;entryX=0.5;entryY=0;entryDx=0;entryDy=0;" edge="1" parent="1" source="cfQISFHKaqoTKypXr1KS-13" target="cfQISFHKaqoTKypXr1KS-24">
          <mxGeometry relative="1" as="geometry" />
        </mxCell>
        <mxCell id="cfQISFHKaqoTKypXr1KS-13" value="支付" style="rounded=1;whiteSpace=wrap;html=1;" vertex="1" parent="1">
          <mxGeometry x="572.5" y="290" width="85" height="20" as="geometry" />
        </mxCell>
        <mxCell id="cfQISFHKaqoTKypXr1KS-14" value="支付" style="rounded=1;whiteSpace=wrap;html=1;" vertex="1" parent="1">
          <mxGeometry x="172.5" y="290" width="85" height="20" as="geometry" />
        </mxCell>
        <mxCell id="cfQISFHKaqoTKypXr1KS-17" value="支付成功" style="text;html=1;strokeColor=none;fillColor=none;align=center;verticalAlign=middle;whiteSpace=wrap;rounded=0;" vertex="1" parent="1">
          <mxGeometry x="231" y="90" width="60" height="20" as="geometry" />
        </mxCell>
        <mxCell id="cfQISFHKaqoTKypXr1KS-29" style="edgeStyle=orthogonalEdgeStyle;rounded=0;orthogonalLoop=1;jettySize=auto;html=1;exitX=0.5;exitY=1;exitDx=0;exitDy=0;entryX=0.5;entryY=0;entryDx=0;entryDy=0;" edge="1" parent="1" source="cfQISFHKaqoTKypXr1KS-18" target="cfQISFHKaqoTKypXr1KS-28">
          <mxGeometry relative="1" as="geometry" />
        </mxCell>
        <mxCell id="cfQISFHKaqoTKypXr1KS-18" value="物业费缴纳&lt;br&gt;&lt;br&gt;&lt;br&gt;实缴物业费：1440元&lt;br&gt;实缴总金额：1440元" style="rounded=0;whiteSpace=wrap;html=1;" vertex="1" parent="1">
          <mxGeometry x="90" y="410" width="250" height="180" as="geometry" />
        </mxCell>
        <mxCell id="cfQISFHKaqoTKypXr1KS-20" value="支付成功" style="text;html=1;strokeColor=none;fillColor=none;align=center;verticalAlign=middle;whiteSpace=wrap;rounded=0;" vertex="1" parent="1">
          <mxGeometry x="231" y="350" width="60" height="20" as="geometry" />
        </mxCell>
        <mxCell id="cfQISFHKaqoTKypXr1KS-23" value="支付" style="rounded=1;whiteSpace=wrap;html=1;" vertex="1" parent="1">
          <mxGeometry x="175" y="560" width="85" height="20" as="geometry" />
        </mxCell>
        <mxCell id="cfQISFHKaqoTKypXr1KS-30" style="edgeStyle=orthogonalEdgeStyle;rounded=0;orthogonalLoop=1;jettySize=auto;html=1;exitX=0.5;exitY=1;exitDx=0;exitDy=0;" edge="1" parent="1" source="cfQISFHKaqoTKypXr1KS-24" target="cfQISFHKaqoTKypXr1KS-28">
          <mxGeometry relative="1" as="geometry" />
        </mxCell>
        <mxCell id="cfQISFHKaqoTKypXr1KS-24" value="物业费缴纳&lt;br&gt;&lt;br&gt;&lt;br&gt;实缴物业费：1440元&lt;br&gt;物业费逾期天数：10天&lt;br&gt;物业费滞纳金：200元&lt;br&gt;实缴总金额：1640元&lt;br&gt;" style="rounded=0;whiteSpace=wrap;html=1;" vertex="1" parent="1">
          <mxGeometry x="490" y="410" width="250" height="180" as="geometry" />
        </mxCell>
        <mxCell id="cfQISFHKaqoTKypXr1KS-25" value="支付" style="rounded=1;whiteSpace=wrap;html=1;" vertex="1" parent="1">
          <mxGeometry x="572.5" y="560" width="85" height="20" as="geometry" />
        </mxCell>
        <mxCell id="cfQISFHKaqoTKypXr1KS-27" value="支付成功" style="text;html=1;strokeColor=none;fillColor=none;align=center;verticalAlign=middle;whiteSpace=wrap;rounded=0;" vertex="1" parent="1">
          <mxGeometry x="632.5" y="350" width="60" height="20" as="geometry" />
        </mxCell>
        <mxCell id="cfQISFHKaqoTKypXr1KS-28" value="电子合同流程" style="rounded=0;whiteSpace=wrap;html=1;align=center;" vertex="1" parent="1">
          <mxGeometry x="280" y="710" width="286" height="240" as="geometry" />
        </mxCell>
        <mxCell id="cfQISFHKaqoTKypXr1KS-31" value="支付成功" style="text;html=1;strokeColor=none;fillColor=none;align=center;verticalAlign=middle;whiteSpace=wrap;rounded=0;" vertex="1" parent="1">
          <mxGeometry x="393" y="620" width="60" height="20" as="geometry" />
        </mxCell>
        <mxCell id="cfQISFHKaqoTKypXr1KS-37" style="edgeStyle=orthogonalEdgeStyle;rounded=0;orthogonalLoop=1;jettySize=auto;html=1;exitX=0.5;exitY=1;exitDx=0;exitDy=0;entryX=0.5;entryY=0;entryDx=0;entryDy=0;" edge="1" parent="1" source="cfQISFHKaqoTKypXr1KS-33" target="PC2PQDanWNCWB4JbsfnV-1">
          <mxGeometry relative="1" as="geometry" />
        </mxCell>
        <mxCell id="cfQISFHKaqoTKypXr1KS-38" style="edgeStyle=orthogonalEdgeStyle;rounded=0;orthogonalLoop=1;jettySize=auto;html=1;exitX=0.5;exitY=1;exitDx=0;exitDy=0;entryX=0.5;entryY=0;entryDx=0;entryDy=0;" edge="1" parent="1" source="cfQISFHKaqoTKypXr1KS-33" target="cfQISFHKaqoTKypXr1KS-6">
          <mxGeometry relative="1" as="geometry" />
        </mxCell>
        <mxCell id="cfQISFHKaqoTKypXr1KS-33" value="&lt;b&gt;身份验证&lt;/b&gt;&lt;br&gt;&lt;br&gt;承租人：_______________&lt;br&gt;身份证号码：___________________&lt;br&gt;&lt;font color=&quot;#ff0000&quot;&gt;小区名称：_________________&lt;br&gt;房号：_____________&lt;br&gt;&lt;br&gt;&lt;br&gt;&lt;/font&gt;" style="rounded=0;whiteSpace=wrap;html=1;align=center;" vertex="1" parent="1">
          <mxGeometry x="298" y="-1040" width="250" height="150" as="geometry" />
        </mxCell>
        <mxCell id="cfQISFHKaqoTKypXr1KS-34" value="&lt;h1&gt;&lt;font color=&quot;#ff0000&quot;&gt;&lt;span style=&quot;font-size: 12px ; font-weight: 400&quot;&gt;身份证号和小区信息是唯一对应关系，实际显示中去掉小区名称和房号&lt;/span&gt;&lt;/font&gt;&lt;/h1&gt;" style="text;html=1;strokeColor=none;fillColor=none;spacing=5;spacingTop=-20;whiteSpace=wrap;overflow=hidden;rounded=0;" vertex="1" parent="1">
          <mxGeometry x="556.25" y="-990" width="212.5" height="100" as="geometry" />
        </mxCell>
        <mxCell id="cfQISFHKaqoTKypXr1KS-35" value="取消" style="rounded=1;whiteSpace=wrap;html=1;" vertex="1" parent="1">
          <mxGeometry x="442" y="-920" width="85" height="20" as="geometry" />
        </mxCell>
        <mxCell id="cfQISFHKaqoTKypXr1KS-36" value="确定" style="rounded=1;whiteSpace=wrap;html=1;" vertex="1" parent="1">
          <mxGeometry x="332" y="-920" width="85" height="20" as="geometry" />
        </mxCell>
      </root>
    </mxGraphModel>
  </diagram>
</mxfile>
